<svg height="504pt" viewBox="-34 0 504 504.30576" width="504pt" fill="#FFF" xmlns="http://www.w3.org/2000/svg"><path d="m260.992188 50.359375c4.636718 0 8.394531-3.757813 8.394531-8.390625v-16.789062c0-13.90625-11.273438-25.179688-25.179688-25.179688h-50.363281c-13.90625 0-25.179688 11.273438-25.179688 25.179688v16.789062c0 4.632812 3.757813 8.390625 8.394532 8.390625h8.394531v19.375c-99.496094 15.316406-175.660156 96.617187-184.457031 196.902344-8.796875 100.28125 52.042968 193.601562 147.351562 226.011719 95.308594 32.410156 200.425782-4.476563 254.585938-89.335938s43.347656-195.734375-26.1875-268.53125l10.425781-14.183594 6.714844 4.960938c1.441406 1.050781 3.183593 1.617187 4.96875 1.617187.425781 0 .851562-.03125 1.273437-.089843 2.203125-.347657 4.179688-1.554688 5.492188-3.359376l9.929687-13.527343c3.953125-5.386719 5.605469-12.117188 4.589844-18.71875-1.011719-6.605469-4.605469-12.53125-9.988281-16.484375l-27.035156-19.835938c-5.382813-3.953125-12.117188-5.605468-18.71875-4.589844-6.601563 1.011719-12.53125 4.605469-16.484376 9.988282l-9.929687 13.53125c-1.320313 1.796875-1.875 4.042968-1.535156 6.25.339843 2.203125 1.539062 4.183594 3.339843 5.5l6.714844 4.945312-8.609375 11.75c-25.78125-16.867187-54.855469-28.050781-85.296875-32.800781v-19.375zm-75.539063-25.179687c0-4.636719 3.757813-8.394532 8.390625-8.394532h50.363281c4.632813 0 8.390625 3.757813 8.390625 8.394532v8.394531h-67.144531zm33.574219 461.640624c-111.253906 0-201.445313-90.191406-201.445313-201.441406 0-111.253906 90.191407-201.445312 201.445313-201.445312 111.25 0 201.441406 90.191406 201.441406 201.445312-.128906 111.199219-90.242188 201.3125-201.441406 201.441406zm142.425781-416.316406c1.320313-1.796875 3.300781-2.996094 5.503906-3.332031 2.207031-.335937 4.453125.222656 6.246094 1.546875l27.070313 19.855469c1.800781 1.320312 3 3.300781 3.335937 5.503906.335937 2.207031-.214844 4.453125-1.539063 6.25l-4.960937 6.773437-6.714844-4.910156-.050781-.058594-27.109375-19.894531h-.050781l-6.714844-4.925781zm-1.417969 30.21875 13.5625 9.953125-9.03125 12.304688c-4.195312-3.75-8.519531-7.335938-12.976562-10.75zm-124.222656-32.871094c-5.546875-.417968-11.128906-.703124-16.785156-.703124-5.660156 0-11.242188.285156-16.789063.703124v-17.492187h33.574219zm0 0"/><path d="m378.644531 192.703125c-16.167969-27.714844-39.230469-50.777344-66.945312-66.945313-.136719-.082031-.210938-.21875-.347657-.300781-.132812-.085937-.292968-.074219-.433593-.144531-56.882813-32.800781-126.9375-32.800781-183.816407 0-.144531.070312-.292968.070312-.4375.144531-.144531.074219-.210937.21875-.34375.300781-27.71875 16.167969-50.78125 39.230469-66.945312 66.945313-.085938.136719-.21875.210937-.304688.347656-.082031.132813-.074218.292969-.140624.433594-32.804688 56.882813-32.804688 126.9375 0 183.816406.066406.144531.066406.296875.140624.4375.078126.144531.285157.34375.414063.527344 16.164063 27.636719 39.183594 50.628906 66.835937 66.761719.132813.085937.210938.21875.34375.304687.132813.082031.429688.160157.636719.257813 56.773438 32.632812 126.609375 32.632812 183.382813 0 .207031-.097656.433594-.140625.636718-.257813.199219-.117187.210938-.21875.34375-.304687 27.65625-16.140625 50.675782-39.148438 66.835938-66.792969.125-.183594.292969-.328125.414062-.53125.117188-.199219.074219-.292969.140626-.433594 32.804687-56.882812 32.804687-126.9375 0-183.816406-.066407-.144531-.066407-.292969-.140626-.4375-.078124-.144531-.1875-.175781-.269531-.3125zm-68.609375 233.523437-8.199218-14.199218c-1.488282-2.621094-4.265626-4.238282-7.277344-4.246094-3.011719-.007812-5.796875 1.601562-7.296875 4.210938-1.5 2.613281-1.488281 5.828124.035156 8.425781l8.210937 14.210937c-21.140624 10.851563-44.355468 17.050782-68.089843 18.1875v-16.355468c0-4.636719-3.757813-8.394532-8.390625-8.394532-4.636719 0-8.394532 3.757813-8.394532 8.394532v16.355468c-23.734374-1.136718-46.949218-7.335937-68.089843-18.1875l8.210937-14.210937c2.28125-4.007813.894532-9.109375-3.101562-11.417969-3.996094-2.304688-9.101563-.953125-11.4375 3.027344l-8.199219 14.199218c-19.933594-12.921874-36.917969-29.90625-49.839844-49.839843l14.210938-8.199219c2.617187-1.488281 4.238281-4.265625 4.242187-7.277344.007813-3.011718-1.601562-5.796875-4.210937-7.296875-2.613281-1.5-5.828125-1.488281-8.425781.035157l-14.21875 8.210937c-10.851563-21.140625-17.050782-44.355469-18.1875-68.089844h16.359374c4.632813 0 8.390626-3.757812 8.390626-8.390625 0-4.636718-3.757813-8.394531-8.390626-8.394531h-16.359374c1.136718-23.734375 7.335937-46.949219 18.1875-68.089844l14.21875 8.210938c1.273437.738281 2.722656 1.128906 4.195312 1.125 3.800781 0 7.125-2.550781 8.109375-6.222657.980469-3.667968-.621094-7.539062-3.910156-9.441406l-14.210938-8.199218c12.921875-19.933594 29.90625-36.917969 49.839844-49.839844l8.199219 14.199218c1.488281 2.621094 4.265625 4.238282 7.277344 4.246094 3.011718.007813 5.796874-1.601562 7.296874-4.210937 1.5-2.613281 1.488282-5.828125-.035156-8.425781l-8.210937-14.210938c21.140625-10.851562 44.355469-17.050781 68.089843-18.1875v16.359375c0 4.632813 3.757813 8.390625 8.394532 8.390625 4.632812 0 8.390625-3.757812 8.390625-8.390625v-16.359375c23.734375 1.136719 46.949219 7.335938 68.089843 18.1875l-8.210937 14.210938c-1.523437 2.597656-1.535156 5.8125-.035156 8.425781 1.5 2.609375 4.285156 4.21875 7.296875 4.210937 3.011718-.007812 5.789062-1.625 7.277344-4.246094l8.199218-14.199218c19.933594 12.921875 36.917969 29.90625 49.839844 49.839844l-14.210938 8.199218c-2.617187 1.488282-4.238281 4.265625-4.242187 7.277344-.007813 3.011719 1.601563 5.796875 4.210937 7.296875 2.613282 1.5 5.828126 1.488281 8.425782-.035156l14.21875-8.210938c10.851562 21.140625 17.050781 44.355469 18.1875 68.089844h-16.359375c-4.632813 0-8.390625 3.757813-8.390625 8.394531 0 4.632813 3.757812 8.390625 8.390625 8.390625h16.359375c-1.136719 23.734375-7.335938 46.949219-18.1875 68.089844l-14.21875-8.210937c-4.011719-2.28125-9.109375-.894532-11.417969 3.101562-2.304687 3.996094-.957031 9.101562 3.023437 11.4375l14.210938 8.199219c-12.921875 19.933593-29.90625 36.917969-49.839844 49.839843zm0 0"/><path d="m301.792969 356.277344c26.796875-31.144532 33.777343-74.71875 18.058593-112.675782-15.71875-37.953124-51.464843-63.832031-92.433593-66.910156v-17.214844c0-4.636718-3.757813-8.394531-8.390625-8.394531-4.636719 0-8.394532 3.757813-8.394532 8.394531v17.214844c-47.195312 3.5625-86.707031 37.160156-97.804687 83.171875-11.097656 46.007813 8.746094 93.925781 49.125 118.617188 40.382813 24.6875 92.078125 20.511719 127.972656-10.335938l28.082031 28.085938c3.292969 3.179687 8.53125 3.132812 11.765626-.101563 3.238281-3.238281 3.285156-8.472656.105468-11.769531zm9.558593-70.898438c.015626 21.582032-7.570312 42.484375-21.417968 59.039063l-42.09375-42.09375c3.085937-5.117188 4.730468-10.972657 4.757812-16.945313-.054687-15.265625-10.402344-28.566406-25.179687-32.382812v-59.519532c47.507812 4.378907 83.871093 44.195313 83.933593 91.902344zm-80.464843 11.859375c-5.667969 5.65625-14.546875 6.523438-21.199219 2.066407-6.65625-4.453126-9.238281-12.992188-6.164062-20.386719 3.070312-7.398438 10.941406-11.59375 18.796874-10.023438 7.851563 1.574219 13.5 8.472657 13.492188 16.484375.003906 4.457032-1.773438 8.730469-4.933594 11.875zm-11.859375 80.464844c-49.175782-.25-89.523438-39-91.761719-88.121094-2.234375-49.125 34.417969-91.382812 83.367187-96.105469v59.519532c-16.355468 4.207031-27.019531 19.925781-24.886718 36.679687 2.128906 16.75 16.394531 29.296875 33.28125 29.273438 5.972656-.027344 11.828125-1.671875 16.945312-4.757813l42.09375 42.09375c-16.554687 13.851563-37.457031 21.433594-59.039062 21.417969zm0 0"/></svg>
