<svg height="512" viewBox="0 0 48 56" width="512" xmlns="http://www.w3.org/2000/svg"><g id="083---Up-Arrows"><path id="Shape" d="m23 15.375v-5.575c-21.471 15.607-21.928 15.867-21.828 15.867-.34213881.242856-.75246089.3709941-1.172.366v6.007c20.183-14.655 22.573-16.411 23-16.665z"/><path id="Shape" d="m46.828 25.667-21.828-15.858v5.567c.4.235-2.392-1.775 23 16.676v-6c-.4221617.002676-.8336627-.1325014-1.172-.385z"/><path id="Shape" d="m22.828 7.463c.6983424-.51041866 1.6466576-.51041866 2.345 0 24.211 17.589 22.827 16.637 22.827 16.537s0 0 0-6.556l-24-17.444-24 17.435v6.6z"/><path id="Shape" d="m1.172 49.616c-.34213881.242856-.75246089.3709941-1.172.366v6.007c19.675-14.289 22.583-16.42 23-16.665v-5.571c-21.471 15.603-21.928 15.863-21.828 15.863z"/><path id="Shape" d="m48 48c0-.649 0 2.386 0-6.6l-24-17.453-24 17.436v6.6l22.828-16.572c.6982322-.5084945 1.6447678-.5084945 2.343 0z"/><path id="Shape" d="m46.828 49.616-21.828-15.859v5.568c.418.245 3.285 2.349 23 16.674v-5.999c-.4220473.0029646-.8335371-.131858-1.172-.384z"/></g></svg>